<svg width="20" height="20" viewBox="0 0 35 34" fill="none" xmlns="http://www.w3.org/2000/svg">
<path d="M10.6667 27C8.83333 27 7.35 28.5 7.35 30.3333C7.35 32.1666 8.83333 33.6666 10.6667 33.6666C12.5 33.6666 14 32.1666 14 30.3333C14 28.5 12.5 27 10.6667 27ZM0.666668 1.99998C0.666668 2.91665 1.41667 3.66665 2.33333 3.66665H4L10 16.3166L7.75 20.3833C6.53333 22.6166 8.13333 25.3333 10.6667 25.3333H29C29.9167 25.3333 30.6667 24.5833 30.6667 23.6666C30.6667 22.75 29.9167 22 29 22H10.6667L12.5 18.6666H24.9167C26.1667 18.6666 27.2667 17.9833 27.8333 16.95L33.8 6.13331C34.4167 5.03331 33.6167 3.66665 32.35 3.66665H7.68333L6.56667 1.28331C6.3 0.69998 5.7 0.333313 5.06667 0.333313H2.33333C1.41667 0.333313 0.666668 1.08331 0.666668 1.99998ZM27.3333 27C25.5 27 24.0167 28.5 24.0167 30.3333C24.0167 32.1666 25.5 33.6666 27.3333 33.6666C29.1667 33.6666 30.6667 32.1666 30.6667 30.3333C30.6667 28.5 29.1667 27 27.3333 27Z" fill="white"/>
</svg>
