<svg width="24" height="20" viewBox="0 0 19 20" fill="none" xmlns="http://www.w3.org/2000/svg">
<path d="M9.78322 0.439697C6.27771 0.439697 3.13552 1.91199 0.955627 4.26383L9.78322 19.5604L18.6108 4.26383C16.4407 1.92155 13.2887 0.439697 9.78322 0.439697ZM4.87355 5.21986C4.87355 4.16822 5.75729 3.3078 6.83742 3.3078C7.91754 3.3078 8.80129 4.16822 8.80129 5.21986C8.80129 6.2715 7.91754 7.13193 6.83742 7.13193C5.75729 7.13193 4.87355 6.2715 4.87355 5.21986ZM9.78322 12.8681C8.70309 12.8681 7.81935 12.0077 7.81935 10.9561C7.81935 9.90442 8.70309 9.04399 9.78322 9.04399C10.8633 9.04399 11.7471 9.90442 11.7471 10.9561C11.7471 12.0077 10.8633 12.8681 9.78322 12.8681Z" fill="#B7B7B7"/>
</svg>
