<svg width="24" height="21" viewBox="0 0 17 21" fill="none" xmlns="http://www.w3.org/2000/svg">
<path d="M16.1281 11.3346C14.5864 7.43397 9.09743 7.22365 10.423 1.55437C10.5212 1.13372 10.0597 0.808667 9.68659 1.02855C6.12217 3.07447 3.55932 7.17585 5.70976 12.5487C5.8865 12.9885 5.35626 13.3996 4.97331 13.1128C3.196 11.803 3.00944 9.91966 3.16655 8.57165C3.22546 8.07452 2.55775 7.83551 2.27298 8.2466C1.60527 9.24088 0.927734 10.847 0.927734 13.2658C1.30087 18.6196 5.94542 20.2639 7.61471 20.4743C10.0008 20.7706 12.5833 20.3404 14.4392 18.6865C16.4816 16.8413 17.2278 13.8968 16.1281 11.3346ZM7.01573 16.1434C8.42972 15.8088 9.15635 14.8145 9.35273 13.935C9.67677 12.5679 8.41008 11.2294 9.26436 9.06879C9.5884 10.8566 12.4753 11.9751 12.4753 13.9254C12.5538 16.3442 9.86334 18.4188 7.01573 16.1434Z" fill="white" fill-opacity="0.6"/>
</svg>
