<svg width="24" height="20" viewBox="0 0 20 20" fill="none" xmlns="http://www.w3.org/2000/svg">
<path d="M14.7812 9.04395H19.5535C19.3963 7.50473 18.8563 6.07068 18.0413 4.8374C16.3425 5.63091 15.1053 7.17968 14.7812 9.04395Z" fill="white" fill-opacity="0.6"/>
<path d="M4.78514 9.04395C4.4611 7.17968 3.22387 5.63091 1.52512 4.8374C0.710113 6.07068 0.170049 7.50473 0.0129395 9.04395H4.78514Z" fill="white" fill-opacity="0.6"/>
<path d="M12.7977 9.04392C13.112 6.56779 14.6438 4.46452 16.7844 3.30772C15.2133 1.74939 13.112 0.716875 10.7651 0.487427V9.04392H12.7977Z" fill="white" fill-opacity="0.6"/>
<path d="M6.76864 9.04392H8.80124V0.487427C6.45442 0.716875 4.34326 1.74939 2.78198 3.30772C4.9226 4.46452 6.45442 6.56779 6.76864 9.04392Z" fill="white" fill-opacity="0.6"/>
<path d="M12.7977 10.956H10.7651V19.5125C13.112 19.283 15.2231 18.2505 16.7844 16.6922C14.6438 15.5354 13.112 13.4321 12.7977 10.956Z" fill="white" fill-opacity="0.6"/>
<path d="M1.52512 15.1625C3.21405 14.369 4.4611 12.8107 4.78514 10.956H0.0129395C0.170049 12.4952 0.710113 13.9293 1.52512 15.1625Z" fill="white" fill-opacity="0.6"/>
<path d="M14.7812 10.956C15.1053 12.8203 16.3425 14.369 18.0413 15.1625C18.8563 13.9293 19.3963 12.4952 19.5535 10.956H14.7812Z" fill="white" fill-opacity="0.6"/>
<path d="M6.76864 10.956C6.45442 13.4321 4.9226 15.5354 2.78198 16.6922C4.35308 18.2505 6.45442 19.283 8.80124 19.5125V10.956H6.76864Z" fill="white" fill-opacity="0.6"/>
</svg>
