<svg width="58" height="58" viewBox="0 0 58 58" fill="none" xmlns="http://www.w3.org/2000/svg">
<rect x="2" y="2" width="54" height="54" rx="27" fill="white"/>
<path d="M29 4C15.2151 4 4 15.2151 4 29C4 42.7849 15.2151 54 29 54C42.7849 54 54 42.7849 54 29C54 15.2151 42.7849 4 29 4ZM22.9639 18.0409C24.4868 16.4267 26.6298 15.5385 29 15.5385C31.3702 15.5385 33.494 16.4327 35.0228 18.0553C36.5721 19.6995 37.3257 21.9087 37.1478 24.2837C36.7921 29 33.1382 32.8462 29 32.8462C24.8618 32.8462 21.2007 29 20.8522 24.2825C20.6755 21.8882 21.4279 19.6719 22.9639 18.0409ZM29 50.1538C26.176 50.1557 23.3805 49.5905 20.779 48.4917C18.1776 47.3929 15.8233 45.7829 13.8558 43.7572C14.9826 42.1502 16.4185 40.7838 18.0793 39.738C21.143 37.774 25.0204 36.6923 29 36.6923C32.9796 36.6923 36.857 37.774 39.9171 39.738C41.5793 40.7834 43.0164 42.1498 44.1442 43.7572C42.1768 45.7831 39.8226 47.3933 37.2211 48.4921C34.6197 49.5909 31.824 50.156 29 50.1538Z" fill="#222222"/>
<rect x="2" y="2" width="54" height="54" rx="27" stroke="#AF44BE" stroke-width="4"/>
</svg>
