<svg width="30" height="30" viewBox="0 0 30 30" fill="none" xmlns="http://www.w3.org/2000/svg">
    <path d="M15 0C6.72909 0 0 6.72909 0 15C0 23.2709 6.72909 30 15 30C23.2709 30 30 23.2709 30 15C30 6.72909 23.2709 0 15 0ZM11.3784 8.42452C12.2921 7.45601 13.5779 6.92308 15 6.92308C16.4221 6.92308 17.6964 7.45962 18.6137 8.43317C19.5433 9.41971 19.9954 10.7452 19.8887 12.1702C19.6752 15 17.4829 17.3077 15 17.3077C12.5171 17.3077 10.3204 15 10.1113 12.1695C10.0053 10.7329 10.4567 9.40313 11.3784 8.42452ZM15 27.6923C13.3056 27.6934 11.6283 27.3543 10.0674 26.695C8.50657 26.0357 7.09399 25.0698 5.91346 23.8543C6.58959 22.8901 7.45107 22.0703 8.4476 21.4428C10.2858 20.2644 12.6123 19.6154 15 19.6154C17.3877 19.6154 19.7142 20.2644 21.5502 21.4428C22.5476 22.07 23.4098 22.8899 24.0865 23.8543C22.9061 25.0699 21.4936 26.036 19.9327 26.6952C18.3718 27.3545 16.6944 27.6936 15 27.6923Z" 
    fill="#222222"/>
</svg>
